<?xml version="1.0" standalone="no"?>
<!DOCTYPE svg PUBLIC "-//W3C//DTD SVG 20010904//EN"
 "http://www.w3.org/TR/2001/REC-SVG-20010904/DTD/svg10.dtd">
<svg version="1.0" xmlns="http://www.w3.org/2000/svg"
 width="382.000000pt" height="233.000000pt" viewBox="0 0 382.000000 233.000000"
 preserveAspectRatio="xMidYMid meet">

<g transform="translate(0.000000,233.000000) scale(0.100000,-0.100000)"
fill="#000000" stroke="none">
<path d="M970 2087 c50 -25 62 -68 57 -217 -5 -161 -24 -250 -132 -611 -120
-401 -147 -579 -100 -658 40 -67 86 -68 124 -1 18 32 24 65 32 168 11 151 23
249 49 397 66 374 87 670 56 806 -9 41 -22 81 -29 90 -14 19 -50 39 -69 39 -7
0 -2 -6 12 -13z"/>
<path d="M565 1607 c-41 -41 -59 -104 -52 -176 6 -52 4 -57 -31 -96 -183 -204
-266 -384 -317 -693 l-17 -103 24 -47 c27 -54 77 -92 123 -92 65 0 134 75 136
146 1 16 -2 99 -6 184 -8 171 3 263 49 396 27 78 74 181 85 188 15 10 40 -52
65 -164 33 -151 42 -208 65 -439 11 -106 22 -195 24 -198 17 -17 56 449 57
674 0 184 -13 281 -48 353 -26 53 -77 100 -109 100 -8 0 -30 -15 -48 -33z"/>
<path d="M1090 1248 c-16 -39 -92 -340 -86 -345 10 -10 25 8 31 40 14 69 12
67 75 67 l58 0 7 -39 c6 -39 29 -80 39 -71 2 3 -6 44 -18 90 -13 47 -33 121
-45 165 -31 114 -31 115 -42 115 -5 0 -14 -10 -19 -22z m45 -115 c9 -40 14
-77 10 -82 -7 -13 -71 -15 -79 -3 -5 8 5 58 25 136 13 49 22 39 44 -51z"/>
<path d="M1260 1086 c0 -117 4 -186 10 -186 6 0 10 28 10 64 0 49 5 69 21 90
11 14 24 26 28 26 4 0 27 -40 50 -90 24 -50 49 -90 57 -90 8 0 14 2 14 5 0 3
-23 51 -52 108 l-51 104 46 70 c26 38 47 72 47 76 0 24 -27 -4 -80 -83 -33
-49 -65 -90 -70 -90 -6 0 -10 36 -10 84 0 47 -4 88 -10 91 -7 4 -10 -58 -10
-179z"/>
<path d="M1476 1218 c-3 -24 -4 -74 -3 -113 l2 -70 73 -3 c45 -2 72 1 72 8 0
6 -25 10 -59 10 -65 0 -71 6 -64 58 5 32 6 32 60 32 33 0 52 4 48 10 -3 6 -28
10 -55 10 -56 0 -62 6 -54 49 6 30 8 31 60 31 30 0 54 5 54 10 0 6 -28 10 -64
10 l-65 0 -5 -42z"/>
<path d="M1677 1242 c-10 -10 -17 -30 -17 -45 0 -29 23 -48 81 -66 62 -20 58
-81 -6 -81 -25 0 -38 7 -53 27 -21 29 -34 20 -21 -14 10 -27 70 -46 105 -33
13 5 29 22 35 37 16 42 -6 72 -68 95 -54 20 -67 40 -41 66 19 19 66 14 80 -8
7 -11 16 -20 20 -20 14 0 8 20 -12 40 -26 26 -81 26 -103 2z"/>
<path d="M1835 1251 c-3 -5 9 -11 27 -13 l33 -3 3 -102 c1 -57 7 -103 12 -103
5 0 11 46 12 103 l3 102 33 3 c17 2 32 7 32 13 0 12 -147 12 -155 0z"/>
<path d="M2020 1151 c0 -110 16 -164 22 -74 3 48 3 48 38 48 32 0 37 -5 60
-47 14 -27 31 -48 38 -48 10 0 5 17 -16 53 l-29 52 23 18 c29 22 31 60 4 87
-16 16 -33 20 -80 20 l-60 0 0 -109z m124 73 c36 -35 10 -64 -56 -64 -48 0
-48 0 -48 33 0 19 3 37 7 40 13 13 82 7 97 -9z"/>
<path d="M2246 1152 c-39 -117 -40 -122 -27 -122 5 0 15 16 21 36 12 34 13 35
58 32 42 -3 46 -5 54 -35 8 -30 28 -47 28 -23 0 28 -74 220 -85 220 -7 0 -28
-47 -49 -108z m78 -4 c6 -27 5 -28 -30 -28 -27 0 -35 4 -31 14 3 8 11 34 18
58 l12 43 12 -30 c7 -16 15 -42 19 -57z"/>
<path d="M3228 1063 c7 -3 16 -2 19 1 4 3 -2 6 -13 5 -11 0 -14 -3 -6 -6z"/>
<path d="M3295 1046 c93 -29 155 -84 174 -153 20 -72 8 -123 -45 -189 -137
-171 -630 -223 -1159 -123 -110 21 -314 68 -665 152 -102 25 -252 57 -335 72
-82 14 -166 30 -185 35 -19 4 -47 11 -62 14 l-28 6 0 -117 c0 -65 4 -123 8
-130 6 -9 34 -10 107 -5 189 13 366 -4 790 -77 371 -64 699 -90 914 -72 331
29 547 103 639 219 80 100 82 190 5 290 -28 37 -132 92 -173 91 -20 0 -16 -3
15 -13z"/>
<path d="M1595 980 c-3 -5 -1 -10 4 -10 6 0 11 5 11 10 0 6 -2 10 -4 10 -3 0
-8 -4 -11 -10z"/>
<path d="M1860 980 c0 -5 5 -10 11 -10 5 0 7 5 4 10 -3 6 -8 10 -11 10 -2 0
-4 -4 -4 -10z"/>
<path d="M2615 980 c3 -5 8 -10 11 -10 2 0 4 5 4 10 0 6 -5 10 -11 10 -5 0 -7
-4 -4 -10z"/>
<path d="M1938 973 c6 -2 18 -2 25 0 6 3 1 5 -13 5 -14 0 -19 -2 -12 -5z"/>
<path d="M2550 940 c0 -22 2 -40 4 -40 2 0 6 18 8 40 2 22 0 40 -4 40 -5 0 -8
-18 -8 -40z"/>
<path d="M2382 940 c0 -14 2 -19 5 -12 2 6 2 18 0 25 -3 6 -5 1 -5 -13z"/>
<path d="M1620 941 c0 -4 11 -6 25 -3 14 2 25 6 25 8 0 2 -11 4 -25 4 -14 0
-25 -4 -25 -9z"/>
<path d="M1695 940 c-3 -6 1 -7 9 -4 18 7 21 14 7 14 -6 0 -13 -4 -16 -10z"/>
<path d="M2080 940 c0 -5 5 -10 11 -10 5 0 7 5 4 10 -3 6 -8 10 -11 10 -2 0
-4 -4 -4 -10z"/>
<path d="M2271 934 c0 -11 3 -14 6 -6 3 7 2 16 -1 19 -3 4 -6 -2 -5 -13z"/>
<path d="M2700 941 c0 -5 9 -7 20 -4 11 3 20 7 20 9 0 2 -9 4 -20 4 -11 0 -20
-4 -20 -9z"/>
<path d="M2910 900 c-9 -6 -10 -10 -3 -10 6 0 15 5 18 10 8 12 4 12 -15 0z"/>
<path d="M1638 893 c7 -3 16 -2 19 1 4 3 -2 6 -13 5 -11 0 -14 -3 -6 -6z"/>
</g>
</svg>
